<svg width="128" height="128" viewBox="0 0 128 128" fill="none" xmlns="http://www.w3.org/2000/svg">
<path d="M7.1863 16.7413C7.1863 13.0498 10.1788 10.0573 13.8703 10.0573H39.144C42.8354 10.0573 45.8279 13.0498 45.8279 16.7413V43.0594C45.8279 46.7508 42.8354 49.7433 39.144 49.7433H13.8703C10.1788 49.7433 7.1863 46.7508 7.1863 43.0594V16.7413Z" fill="#F36D2F"/>
<path d="M13.8703 97.5032C13.8703 94.0962 16.4328 91.2345 19.8191 90.8598L57.4163 86.6994C61.3747 86.2614 64.8354 89.3603 64.8354 93.3428V111.153C64.8354 114.844 61.8429 117.837 58.1515 117.837H20.5542C16.8628 117.837 13.8703 114.844 13.8703 111.153V97.5032Z" fill="#5E7DAB"/>
<path d="M66.5789 76.0325C66.3202 71.9703 69.7218 68.6221 73.7793 68.9448L115.077 72.2299C118.552 72.5063 121.231 75.4069 121.231 78.8928V116.69C121.231 120.339 118.304 123.314 114.656 123.373L76.0131 123.999C72.4453 124.057 69.4612 121.302 69.2345 117.741L66.5789 76.0325Z" fill="#EBB632"/>
<path d="M6.76855 62.9215C6.76855 59.5647 9.25824 56.7287 12.5867 56.2939L46.602 51.8504C50.2265 51.377 53.5592 53.903 54.0828 57.5206L56.7476 75.9324C57.2875 79.6621 54.6387 83.1005 50.8946 83.5302L14.2145 87.7394C10.2472 88.1946 6.76855 85.0923 6.76855 81.099V62.9215Z" fill="#5EBAA8"/>
<path d="M50.4357 11.76C49.7723 7.69283 52.9115 4 57.0325 4H114.338C118.03 4 121.022 6.99251 121.022 10.684V60.6714C121.022 64.5744 117.692 67.6471 113.802 67.3338L63.9956 63.3226C60.9312 63.0758 58.4303 60.7705 57.9354 57.7362L50.4357 11.76Z" fill="#5EBAA8"/>
</svg>
